<svg width="30" height="28" viewBox="0 0 30 28" fill="none" xmlns="http://www.w3.org/2000/svg">
<g opacity="0.1">
<path d="M9 12C10.6567 12 12 10.6567 12 9C12 7.34326 10.6567 6 9 6C7.34326 6 6 7.34326 6 9C6 10.6567 7.34326 12 9 12Z" fill="black"/>
<path fill-rule="evenodd" clip-rule="evenodd" d="M4 0C1.79077 0 0 1.79102 0 4V24C0 26.209 1.79077 28 4 28H26C28.2092 28 30 26.209 30 24V4C30 1.79102 28.2092 0 26 0H4ZM26 2.5H4C3.17163 2.5 2.5 3.17139 2.5 4V14.3198C3.94946 15.7495 6.44946 17.5 10 17.5C13.6821 17.5 15.6694 15.4873 17.8147 13.3149C20.1082 10.9927 22.582 8.48682 27.5 8.0625V4C27.5 3.17139 26.8284 2.5 26 2.5Z" fill="black"/>
</g>
</svg>
