<svg width="28" height="24" viewBox="0 0 28 24" fill="none" xmlns="http://www.w3.org/2000/svg">
<path d="M17.5647 12.6257C18.0012 12.3234 18.0012 11.6781 17.5647 11.3759L13.0048 8.21914C12.5007 7.87018 11.8122 8.23095 11.8122 8.84401V15.1575C11.8122 15.7706 12.5007 16.1314 13.0048 15.7824L17.5647 12.6257Z" fill="#B8BECC"/>
<path d="M2.60007 0.220703C1.55073 0.220703 0.700073 1.07136 0.700073 2.1207V21.8807C0.700073 22.93 1.55073 23.7807 2.60007 23.7807H25.4001C26.4494 23.7807 27.3001 22.93 27.3001 21.8807V2.1207C27.3001 1.07136 26.4494 0.220703 25.4001 0.220703H2.60007ZM2.98007 21.5007V2.5007H25.0201V21.5007H2.98007Z" fill="#B8BECC"/>
</svg>
