<svg width="908" height="929" viewBox="0 0 908 929" fill="none" xmlns="http://www.w3.org/2000/svg">
<g clip-path="url(#clip0)">
<path d="M0.5 499.9C1.3 498.7 2.3 497.7 3.1 496.5C8.1 489.9 13.3 482.9 18.9 476.7C19.7 475.9 20.5 475.1 21.3 474.3C22.1 473.5 22.9 472.9 23.5 472.1C36.3 457.9 43.3 442.7 43.3 429.3C43.3 416.1 36.9 405.1 24.1 396.3C17.1 391.5 8.89999 387.7 0.699995 385.5" stroke="black" stroke-width="0.7" stroke-miterlimit="10"/>
<path d="M99.5 928.3C98.5 928.1 97.7 927.7 96.7 927.5C80.5 921.9 70.3 910.9 60.3 900.1C51.7 890.9 42.7 881.3 29.9 875.1C23.5 872.1 13.1 868.9 0.499997 867.5" stroke="black" stroke-width="0.7" stroke-miterlimit="10"/>
<path d="M0.5 469.1C1.5 468.1 2.3 467.1 3.3 466.1C12.7 455.9 23.3 444.3 23.3 432.3C23.3 427.7 21.7 423.3 18.7 419.3C15.9 415.5 12.9 413.7 9.9 411.7C8.7 410.9 7.3 410.1 5.9 409.1C4.1 408.3 2.3 407.7 0.499997 407.1" stroke="black" stroke-width="0.7" stroke-miterlimit="10"/>
<path d="M166.7 928.3C166.3 928.1 165.9 927.9 165.5 927.9C157.3 924.7 146.3 922.5 135.5 920.5C124.3 918.3 113.9 916.3 106.5 913.3C93.8998 908.1 83.0998 897.3 71.8998 885.9C64.8998 878.9 57.8998 871.5 49.8998 865.5C40.0998 857.9 31.6998 852.7 21.4998 848.3C15.4998 845.7 8.6998 843.5 2.0998 841.5C1.4998 841.3 0.899801 841.1 0.299801 840.9" stroke="black" stroke-width="0.7" stroke-miterlimit="10"/>
<path d="M266.1 928.3C266.5 918.9 267.7 908.7 269.9 898.3C270.9 893.7 272.5 889.5 274.1 885.5C280.1 870.5 287.5 851.9 302.7 844.9C310.9 844.5 318.1 847.3 325.5 850.3C335.9 854.7 347.7 859.5 366.1 856.7C380.1 854.5 389.1 846.3 399.5 836.7C403.9 832.7 408.3 828.7 413.3 824.9C426.5 814.9 441.5 807.9 454.3 802.7C467.1 797.3 477.3 793.1 480.7 779.1C482.7 770.7 484.1 758.9 484.9 750.9C485.3 746.5 485.7 742.3 485.7 738.5C485.7 732.3 485.1 726.9 483.7 722.5C480.9 712.9 473.1 706.9 463.3 699.3C460.3 697.1 457.3 694.7 454.1 692.1C451.9 690.3 449.5 687.9 446.9 685.3C441.5 680.1 436.1 674.5 431.7 673.1C429.9 672.5 428.5 672.7 426.7 672.9C425.3 673.1 423.9 673.1 422.1 672.9C415.3 678.1 409.9 684.3 404.7 690.3C395.7 700.5 387.3 710.1 373.5 713.9C366.3 715.9 358.3 715.1 349.7 711.7C340.5 708.1 330.3 699.9 321.1 688.3C316.9 683.1 312.7 677.5 308.1 671.7C287.1 644.9 263.5 614.3 242.7 597.7L242.5 597.7C239.9 597.1 237.1 597.3 233.9 598.1C225.3 600.3 214.9 607.1 205.5 616.7C196.7 625.9 190.1 636.5 187.7 644.9C187.5 645.5 187.1 646.9 186.9 648.3C184.3 659.5 186.1 671.1 187.9 682.3C189.3 691.9 190.7 701.1 189.5 710.1C186.9 729.3 174.1 743.3 154.1 748.1C127.9 754.5 111.5 736.7 95.4998 719.5C83.6998 706.9 71.6998 693.7 55.4998 690.3C40.4998 687.1 24.0998 691.3 13.2998 694.1C8.89979 695.3 4.69979 696.7 0.299795 698.1" stroke="black" stroke-width="0.7" stroke-miterlimit="10"/>
<path d="M0.499999 670.9C1.9 670.5 3.1 670.1 4.3 669.9C7.1 669.1 10.1 668.3 12.9 667.5C17.3 666.3 21.7 664.9 26.1 663.7C35.7 660.9 44.7 658.3 52.7 657.1C58.5 656.3 64.5 656.3 68.5 657.1C80.9 659.3 90.7 667.7 100.1 675.9C110.9 685.1 122.1 694.9 137.5 695.5C151.3 694.5 153.3 678.9 155.5 662.5C155.9 659.5 156.3 656.3 156.7 653.3C158.7 641.3 162.5 627.3 167.9 613.1C169.7 608.1 172.1 603.3 174.5 598.7C178.9 589.9 183.1 581.5 184.1 571.7C184.3 570.5 184.3 569.1 184.3 567.9C184.3 561.3 182.5 555.5 180.7 550.5C178.9 545.5 177.1 541.1 175.1 536.9C171.1 527.9 167.5 519.5 166.3 506.5C166.1 504.1 165.9 501.9 165.9 499.5C165.9 485.3 169.7 473.5 173.3 461.9C176.5 451.9 179.3 442.5 179.3 432.9C179.3 430.9 179.3 429.1 178.9 427.3C177.1 412.5 169.3 401.1 155.5 392.5C143.3 384.9 127.7 380.7 112.7 376.9C108.3 375.9 100.1 373.9 94.1 373.3C88.5 372.7 84.5 373.5 81.5 375.9C76.3 380.3 76.1 389.3 75.7 399.7C75.5 404.5 75.3 409.3 74.7 414.1C72.1 434.5 69.5 451.7 61.5 470.7C55.1 486.3 46.9 501.9 41.3 512.3C32.3 529.3 20.5 549.1 0.499994 563.1" stroke="black" stroke-width="0.7" stroke-miterlimit="10"/>
<path d="M53.5 928.3C51.7 925.7 49.9 923.1 48.3 920.5C42.9 912.1 37.7 903.9 29.1 898.3C22.3 893.9 14.1 890.1 0.499998 889.9" stroke="black" stroke-width="0.7" stroke-miterlimit="10"/>
<path d="M0.5 652.1C12.3 649.5 23.7 645.7 32.1 642.3C34.5 641.3 36.9 640.3 39.1 639.3C44.9 636.7 50.9 633.9 57.3 633.1C74.5 630.5 85.7 639.5 96.5 647.9C103.9 653.7 110.9 659.3 119.3 660.9C121.5 661.3 122.7 661.3 124.5 661.1C125.3 661.1 126.3 660.9 127.7 660.9C133.7 658.7 138.1 652.1 140.5 647.1C149.7 628.7 153.9 598.5 157.1 576.7C157.5 573.3 157.9 570.1 157.9 566.7C157.9 558.1 156.5 550.3 154.9 541.9C153.3 532.9 151.5 523.7 151.5 513.1C151.5 510.3 151.7 507.3 151.9 504.5C151.9 503.9 152.1 502.3 152.1 500.3C152.3 497.3 152.5 493.5 152.7 490.9C153.3 481.9 154.9 474.9 156.5 468.1C158.5 458.9 160.5 450.5 160.5 437.7C160.5 436.3 160.5 435.1 160.5 433.7C158.9 423.7 148.3 414.3 134.1 410.7C122.3 407.7 106.7 408.3 97.9 419.5C87.7 432.5 78.7 470.7 77.1 491.3C76.7 495.7 76.7 499.3 76.7 502.9C76.7 506.9 76.7 510.9 76.1 516.1C74.9 530.3 69.3 541.9 57.5 555.1C42.9 571.5 31.7 580.5 9.3 593.1C6.9 594.5 3.9 595.7 0.699997 596.9" stroke="black" stroke-width="0.7" stroke-miterlimit="10"/>
<path d="M238.1 928.3C234.5 911.3 225.5 895.5 212.5 883.7C205.9 877.7 198.9 872.5 191.3 866.9C179.5 858.1 167.3 848.9 157.1 837.1C156.3 836.3 155.5 835.5 154.7 834.7C153.9 833.9 153.1 833.3 152.5 832.5C145.7 824.7 140.3 815.9 134.9 807.5C131.3 801.5 127.5 795.5 123.3 789.7C119.9 785.1 116.3 780.5 112.9 776.1C107.7 769.3 102.3 762.5 97.4998 755.5C95.2998 752.1 93.0998 748.7 90.6998 745.1C79.2998 727.3 66.2998 706.9 42.8998 703.9C30.4998 702.3 14.6998 705.5 0.299795 712.5" stroke="black" stroke-width="0.7" stroke-miterlimit="10"/>
<path d="M209.9 928.3C206.3 921.1 201.9 914.3 195.9 910.1C187.5 904.3 172.3 904.3 159.9 904.9C149.9 905.3 130.9 905.3 115.1 898.7C103.1 893.7 92.3 881.7 81.9 870.1C80.3 868.3 78.7 866.5 77.1 864.9C55.9 841.7 36.9 830.3 14.9 820.1C13.1 819.3 11.1 818.5 9.1 817.7C6.7 816.9 4.3 815.9 1.9 814.7C1.49999 814.5 0.899995 814.3 0.499995 813.9" stroke="black" stroke-width="0.7" stroke-miterlimit="10"/>
<path d="M15.3 928.3C15.3 926.1 14.3 923.7 12.3 921.9C9.5 919.1 4.9 917.9 0.5 917.9" stroke="black" stroke-width="0.7" stroke-miterlimit="10"/>
<path d="M0.4998 782.3C2.4998 785.1 4.6998 787.7 7.2998 789.7C14.4998 795.9 24.2998 800.3 33.8998 804.7C35.2998 805.3 36.6998 806.1 38.2998 806.7C51.8998 813.1 68.6998 820.9 80.2998 829.3C86.6998 833.9 91.0998 841.5 95.8998 849.7C102.7 861.1 109.7 873.1 122.7 877.7C127.3 879.3 132.5 879.5 138.9 877.7C142.5 876.1 144.3 873.3 144.3 869.5C144.3 863.1 139.3 855.7 136.7 852.5C131.5 846.3 124.3 840.9 117.3 835.7C113.7 832.9 109.7 830.1 106.1 827.1C104.5 825.7 98.8998 820.7 96.2998 816.5C90.4998 806.7 86.0998 794.1 81.2998 780.7C74.8998 762.1 68.0998 743.1 57.0998 731.1C51.2998 724.7 42.2998 720.9 32.4998 720.7C21.8998 720.5 11.8998 724.1 4.0998 731.1C2.6998 732.3 1.4998 733.7 0.299798 735.1" stroke="black" stroke-width="0.7" stroke-miterlimit="10"/>
<path d="M117.3 619.7C118.1 618.9 119.3 618.5 120.3 618.1L120.5 618.1L120.7 618.1C123.7 614.9 125.3 610.3 125.3 604.9C125.3 597.3 122.1 589.5 117.3 585.9C114.3 583.7 111.1 582.9 107.7 583.7C101.3 585.3 99.3 591.5 97.5 598.1C99.1 609.1 105.9 620.9 117.3 619.7Z" stroke="black" stroke-width="0.7" stroke-miterlimit="10"/>
<path d="M124.7 503.3L124.9 503.1C129.3 496.1 132.1 484.7 132.1 474.7C132.1 468.1 130.7 456.5 121.9 453.5C118.7 453.5 116.1 454.5 113.7 456.9C109.1 461.3 106.5 469.9 106.5 479.5C106.5 491.7 111.1 504.9 121.7 505.1C122.5 504.1 123.7 503.7 124.7 503.3Z" stroke="black" stroke-width="0.7" stroke-miterlimit="10"/>
<path d="M330.1 809.5C340.5 811.9 351.5 814.5 367.7 813.5C395.9 805.3 417.1 795.7 432.9 784.3C436.5 781.5 440.7 778.3 444.1 774.1C448.9 768.1 451.7 759.5 451.7 751.3C451.7 743.1 448.9 735.9 443.7 731.3C437.9 726.3 429.7 724.3 419.1 725.7C413.1 726.5 406.9 728.7 400.9 730.7C394.9 732.9 388.7 735.1 382.7 735.7C359.7 738.9 335.9 728.9 319.1 709.5C311.9 701.3 306.1 692.7 300.5 684.5C294.3 675.5 288.1 666.3 280.1 657.7C268.1 644.5 254.5 629.5 233.9 626.9C224.1 628.5 214.1 631.5 207.1 642.5C203.1 648.7 201.1 655.7 201.1 664.3C201.1 671.7 202.5 679.3 203.9 687.3C205.5 695.9 207.1 704.9 207.1 714.1C207.1 716.3 207.1 718.7 206.9 720.7C206.5 725.1 205.1 730.7 203.7 736.5C201.9 744.3 199.9 752.5 199.9 758.9C199.9 760.3 199.9 761.5 200.1 762.5C201.5 771.1 208.9 780.3 215.3 787.5C225.9 799.3 237.1 810.3 246.1 812.1C249.7 812.9 255.3 812.5 259.5 812.1C265.9 811.5 271.1 810.1 276.3 808.7C285.5 806.5 295.1 804.1 310.3 805.1C317.1 806.5 323.5 807.9 330.1 809.5Z" stroke="black" stroke-width="0.7" stroke-miterlimit="10"/>
<path d="M328.9 782.7C330.7 782.3 332.7 781.9 334.9 781.7C342.3 780.5 350.7 779.1 354.7 771.5C354.1 762.3 345.9 756.5 337.1 750.3C334.1 748.1 330.7 745.9 327.9 743.3C312.1 729.7 301.7 714.3 291.7 699.5C284.5 689.1 277.9 679.3 269.7 670.5C268.3 667.7 265.9 665.9 263.5 664.1C261.7 662.7 259.9 661.3 258.5 659.5C248.5 651.5 236.9 648.9 228.9 652.7C223.9 655.1 217.7 661.3 217.7 676.5C217.7 678.5 217.9 680.7 218.1 682.9C218.5 687.7 219.7 693.5 220.7 699.3C221.9 705.9 223.3 713.3 224.1 720.7C224.3 722.3 224.3 723.7 224.5 725.3C226.5 745.3 227.7 757.3 241.9 769.3C252.1 777.9 264.5 782.5 281.3 783.7C292.1 784.5 303.9 783.9 314.1 783.3C319.7 782.9 324.5 782.7 328.9 782.7Z" stroke="black" stroke-width="0.7" stroke-miterlimit="10"/>
<path d="M277.7 504.5C308.3 501.3 337.1 498.1 357.7 474.3C371.5 458.3 386.3 432.5 386.3 407.7C386.3 392.5 380.7 380.1 369.7 370.7C360.1 362.5 348.9 358.5 335.9 353.7C334.5 353.1 333.1 352.7 331.5 352.1C328.9 351.1 326.5 350.3 324.1 349.3C310.1 343.9 296.7 338.9 285.7 337.7C261.5 334.9 251.7 343.7 242.1 354.7C227.5 371.7 226.3 393.7 225.1 417.1C224.9 422.7 224.3 429.1 223.5 436.1C222.5 447.1 221.5 459.3 221.5 469.7C221.5 480.9 222.7 488.1 225.3 492.1C236.3 508.7 263.1 506.7 273.9 505.1L277.7 504.5Z" stroke="black" stroke-width="0.7" stroke-miterlimit="10"/>
<path d="M282.7 481.9C309.1 479.1 331.9 476.5 348.7 455.3C356.5 445.3 365.7 427.5 365.7 409.7C365.7 400.9 363.5 393.5 358.9 387.5C346.1 370.9 319.1 363.7 300.1 362.5C278.1 361.1 258.7 369.3 248.5 384.1C239.1 397.7 238.1 415.1 237.1 433.3C236.9 437.3 236.7 441.3 236.7 445.3C236.7 456.9 238.1 471.1 249.3 478.3C257.9 482.5 267.9 482.3 277.5 481.9C279.3 481.9 280.9 481.9 282.7 481.9Z" stroke="black" stroke-width="0.7" stroke-miterlimit="10"/>
<path d="M278.5 744.1C278.9 743.3 279.5 742.9 280.1 742.3C280.9 741.7 281.499 740.9 281.899 740.1C279.699 727.9 273.5 714.1 265.5 703.9C262.3 699.9 257.828 690.919 252.499 694.3C251.519 694.922 250.9 695.7 250.3 696.3C249.7 696.9 249.185 697.162 248.699 697.9C247.455 699.794 247.5 701.8 248.499 703.7C249.499 705.6 251.7 728.7 260.7 737.5C265.5 742.1 271.5 744.3 278.5 744.1Z" stroke="black" stroke-width="0.7" stroke-miterlimit="10"/>
<path d="M336.7 437.1C341.3 429.9 343.9 421.9 343.9 414.5C343.9 404.7 339.7 396.5 331.7 390.7C313.1 377.1 277.9 383.3 263.3 402.7C259.3 407.9 254.5 416.9 254.5 429.7C254.5 432.7 254.7 435.9 255.3 438.9C257.5 452.5 268.3 459.5 286.3 459.3C299.7 459.3 324.3 456.1 336.7 437.1Z" stroke="black" stroke-width="0.7" stroke-miterlimit="10"/>
<path d="M451.9 928.3C444.7 918.1 440.5 909.3 439.3 901.5C436.7 885.3 446.9 879.7 456.9 874.1C460.1 872.3 463.3 870.7 465.7 868.7C469.3 865.9 475.3 861.1 474.3 854.5C473.3 847.3 464.7 837.9 452.3 839.7C442.3 841.1 435.1 847.7 429.3 860.7C428.9 861.5 428.5 862.3 428.3 863.3C425.7 869.5 423.1 875.5 417.1 878.3C405.3 881.1 389.3 881.7 372.3 882.3C358.3 882.7 343.7 883.3 331.3 885.1C307.5 888.7 293.1 900.9 287.7 922.5C287.3 924.3 286.7 926.3 286.5 928.5" stroke="black" stroke-width="0.7" stroke-miterlimit="10"/>
<path d="M408.9 928.3C406.3 924.5 403.3 920.9 399.7 917.7C389.3 908.1 373.7 903.1 357.1 903.7C341.1 904.3 326.5 910.3 317.9 919.7C315.9 922.5 314.5 925.5 313.9 928.3" stroke="black" stroke-width="0.7" stroke-miterlimit="10"/>
<path d="M352.7 653.1C336.3 651.7 317.7 629.1 317.7 610.7C317.7 609.1 317.9 607.5 318.1 606.1C319.5 599.3 324.9 590.7 333.9 580.1C347.3 564.7 370.9 543.5 393.5 534.3C396.3 533.3 399.7 531.9 402.5 531.5C413.9 529.7 423.7 534.1 431.7 544.5C436.3 550.7 438.9 558.7 438.9 568.3C438.9 585.7 430.7 606.1 418.9 617.7C414.1 622.5 408.3 626.3 402.3 629.9C388.9 638.1 374.5 645.5 359.1 652.1C357.7 651.9 356.5 652.3 355.3 652.5C354.3 652.9 353.5 653.1 352.7 653.1Z" stroke="black" stroke-width="0.7" stroke-miterlimit="10"/>
<path d="M366.3 571.7C357.9 580.9 351.7 592.1 350.3 600.7C350.1 602.3 349.9 603.9 349.9 605.3C349.9 610.7 351.5 614.9 354.9 618.1C358.7 621.7 364.7 623.7 371.9 623.3C388.1 619.5 401.3 615.7 410.5 604.3C416.5 597.1 420.3 586.1 420.3 576.3C420.3 564.5 414.9 556.3 405.5 553.9C402.7 553.1 398.7 553.3 395.9 553.7C386.3 554.9 375.5 561.5 366.3 571.7Z" stroke="black" stroke-width="0.7" stroke-miterlimit="10"/>
<path d="M439.7 467.9C439.5 469.3 439.5 470.3 439.5 471.5C439.5 473.9 439.9 476.3 440.7 478.9C444.7 492.5 456.5 506.1 468.1 510.7C476.3 513.9 485.3 512.5 494.1 511.3C502.3 510.1 509.9 508.9 516.5 511.3C526.9 514.9 533.3 524.1 539.7 533.1C546.3 542.7 553.3 552.5 564.7 554.9C572.7 556.3 580.5 554.3 586.7 548.9C595.7 541.3 601.7 527.3 601.7 513.5C601.7 504.3 599.3 496.5 594.7 490.5C591.1 485.7 586.3 482.5 581.1 479.1L580.3 478.5C573.5 475.1 565.5 473.9 556.7 472.7C549.3 471.7 541.5 470.5 533.7 467.9C529.1 466.3 525.3 464.7 521.7 463.1C510.5 458.1 500.7 453.9 476.9 455.9C463.1 456.9 446.5 459.3 439.7 467.9Z" stroke="black" stroke-width="0.7" stroke-miterlimit="10"/>
<path d="M524.9 863.7C523.1 865.7 522.1 868.1 522.1 870.7C522.1 875.1 524.9 879.7 529.5 883.9C535.3 888.9 542.9 891.7 548.3 890.7C557.5 888.7 562.3 880.3 562.3 873.1C562.3 868.1 560.1 863.7 556.1 860.7C548.1 854.7 531.3 856.5 524.9 863.7Z" stroke="black" stroke-width="0.7" stroke-miterlimit="10"/>
<path d="M581.5 707.1C580.9 707.5 580.1 707.9 579.5 707.9C578.3 709.5 577.7 711.5 577.7 713.5C577.7 716.7 579.1 719.9 581.7 722.1C584.1 724.3 586.9 725.3 589.7 725.1C592.7 723.5 594.3 721.1 594.3 717.7C594.3 712.7 589.9 706.5 584.1 705.9C583.1 706.3 582.3 706.7 581.5 707.1Z" stroke="black" stroke-width="0.7" stroke-miterlimit="10"/>
<path d="M0.5 136.3C4.1 133.1 6.7 129.9 8.5 126.3C13.5 115.9 14.1 103.7 9.9 93.5001C7.7 88.5001 4.5 84.1 0.499998 80.9" stroke="black" stroke-width="0.7" stroke-miterlimit="10"/>
<path d="M0.5 531.3C6.3 524.3 11.7 516.3 17.1 508.1C20.1 503.7 23.1 499.1 26.1 494.7C28.9 490.7 32.1 486.7 34.9 483.1C41.9 474.1 48.7 465.5 51.7 456.1C56.9 445.5 59.5 435.5 59.5 425.9C59.5 417.9 57.7 410.3 54.1 403.1C43.5 382.1 20.3 370.3 0.499993 365.7" stroke="black" stroke-width="0.7" stroke-miterlimit="10"/>
<path d="M0.5 343.5C1.9 343.5 3.5 343.7 4.9 343.9C15.3 344.7 27.1 345.7 34.1 342.9C41.1 340.1 44.5 333.7 44.5 323.7C44.5 318.5 43.7 313.3 42.9 309.1L42.9 308.9C42.7 307.9 42.7 306.9 42.7 305.9C42.7 301.9 43.9 297.7 45.1 293.9C45.7 291.9 46.3 289.7 46.7 287.7C47.1 286.1 47.3 284.3 47.7 282.7C49.1 275.9 50.5 268.9 53.3 262.5C54.5 259.9 55.5 257.5 56.7 254.9C62.1 242.5 67.7 229.7 78.5 221.3C79.1 220.7 79.9 220.3 80.5 219.9C89.1 214.1 98.3 209.1 107.3 204.3C117.5 198.9 127.9 193.1 137.3 186.3C146.5 179.7 156.9 170.9 166.7 162.3C170.1 159.3 173.5 156.5 176.7 153.7C192.9 140.1 208.1 127.3 208.1 103.5C208.1 97.5 207.1 90.9 205.3 83.7C199.7 63.1 185.9 26.9 155.9 14.5C147.9 11.3 136.9 9.10004 125.1 6.70004C116.3 4.90004 107.1 3.10004 99.5 0.700038" stroke="black" stroke-width="0.7" stroke-miterlimit="10"/>
<path d="M0.5 168.9C5.3 167.7 9.9 166.5 13.7 165.1C30.9 152.3 41.3 129.7 41.3 104.5C41.3 98.3001 40.7 92.1001 39.5 86.5001C34.5 63.9001 19.1 56.7001 0.499995 53.5001" stroke="black" stroke-width="0.7" stroke-miterlimit="10"/>
<path d="M0.5 313.1C13.3 307.7 21.1 298.7 22.7 287.1C24.3 275.7 27.7 264.9 30.9 254.3C33.1 247.5 35.3 240.5 36.9 233.5C37.9 228.9 38.9 224.5 39.5 220.5C40.1 216.3 40.5 212.7 40.5 209.7C40.5 203.5 39.3 199.7 36.7 198.7C29.9 195.5 14.9 193.1 0.499995 192.9" stroke="black" stroke-width="0.7" stroke-miterlimit="10"/>
<path d="M0.499993 35.7001C0.899993 35.7001 1.09999 35.7001 1.49999 35.7001C4.89999 35.9001 8.29999 36.1 11.7 36.3C27.5 36.9 41.3 37.3 49.3 47.9C57.7 58.9 60.1 77.9 61.9 91.9C62.1 93.3 62.3 94.7 62.5 95.9C62.9 98.3 62.9 100.9 62.9 103.3C62.9 117.5 58.1 132.7 53.5 147.3C49.5 160.5 45.1 173.9 44.5 186.7C46.5 193.9 54.3 195.7 60.9 195.1C86.3 193.1 107.3 184.1 132.9 164.1C138.1 160.1 143.3 156.3 148.3 152.7C156.9 146.5 164.9 140.7 172.7 133.7C184.3 123.5 190.1 110.5 190.1 95.5001C190.1 77.9001 181.9 58.3 167.7 41.3C148.9 23.9 123.9 21.3 99.9 20.1C98.1 20.1 96.1 19.9 94.1 19.9C84.5 19.7 72.5 19.3001 66.5 14.7001C61.3 10.5001 57.3 5.70007 53.7 0.700071" stroke="black" stroke-width="0.7" stroke-miterlimit="10"/>
<path d="M209.5 0.500046C211.1 3.70005 212.5 6.90002 214.1 10.1C217.5 17.3 220.5 24.3 224.9 29.5C227.3 32.5 230.9 36.9 235.7 36.5C236.5 35.5 237.3 34.7 238.1 33.9C239.1 28.5 239.7 22.9 239.7 17.3C239.7 11.7 239.1 6.10004 237.9 0.500045" stroke="black" stroke-width="0.7" stroke-miterlimit="10"/>
<path d="M0.5 10.9C1.7 10.9 2.9 11.1 4.1 10.9C10.1 10.5 15.3 5.50004 15.3 0.500038" stroke="black" stroke-width="0.7" stroke-miterlimit="10"/>
<path d="M83.7002 70.9001C83.7002 73.7001 84.1002 76.7001 84.5002 79.7001C85.7002 86.3001 87.9002 93.3001 90.1002 100.7C92.5002 109.1 95.1002 117.7 96.5002 125.9C97.9002 133.5 101.3 136.9 106.9 135.9C112.5 133.3 118.7 131.1 125.5 128.9C139.9 124.3 154.9 119.3 162.7 107.5C166.3 101.9 168.3 95.1001 168.3 87.7001C168.3 75.9001 163.3 63.7001 155.1 55.1001C148.3 48.1001 137.1 42.9001 125.1 41.5001C112.5 39.9001 100.7 42.3001 92.5002 48.5001C87.1002 52.7001 83.7002 61.3001 83.7002 70.9001Z" stroke="black" stroke-width="0.7" stroke-miterlimit="10"/>
<path d="M275.3 563.5C279.5 561.3 283.7 559.1 287.9 557.1C291.5 555.5 295.3 553.7 299.1 552.1C321.9 542.1 345.3 531.7 364.3 516.7C371.5 510.9 378.5 503.9 385.3 497.3C391.7 490.9 397.7 484.7 403.9 479.9C406.7 477.5 409.9 475.5 413.1 473.5C419.5 469.3 425.7 465.5 429.7 458.9L429.5 457.1C428.1 432.1 426.7 410.5 422.5 387.5C419.5 371.1 416.3 359.5 413.1 353.1C406.3 339.9 394.1 336.3 381.3 332.5C379.9 332.1 378.7 331.7 377.3 331.3C359.1 325.7 340.7 317.5 329.1 296.7C328.9 296.5 328.7 296.3 328.5 296.1C326.3 291.7 323.9 287.5 321.5 283.1C317.5 275.5 313.3 267.7 309.3 259.9C307.5 256.5 305.7 253.3 304.1 249.9C301.3 244.9 298.5 239.5 295.9 234.3C294.1 230.7 291.7 227.5 289.5 224.3C288.9 223.5 288.3 222.7 287.7 221.9C285.5 219.1 283.5 215.7 282.1 212.1C279.3 205.3 279.1 197.5 278.7 190.3C278.5 183.9 278.1 177.3 276.3 171.1C274.5 165.3 273.1 161.1 268.1 157.7C252.1 146.7 239.9 152.3 224.7 161.3C208.7 170.9 196.3 182.3 187.7 195.7C186.1 198.1 184.9 200.7 183.7 203.1C182.3 205.9 181.1 208.7 179.3 211.3C177.3 214.3 174.9 217.1 172.9 219.9C171.1 222.1 169.3 224.5 167.5 226.9C160.5 236.5 152.7 248.1 148.3 261.1C146.7 265.5 146.5 270.5 146.5 274.1C146.5 277.7 146.9 281.3 147.5 284.5C148.3 288.5 150.1 291.7 151.9 295.3C152.7 296.7 153.5 298.3 154.3 299.9C155.1 301.7 155.7 303.5 156.3 305.1C157.1 307.3 157.9 309.7 159.1 311.7C161.9 316.9 165.3 322.1 168.7 327.1C171.9 331.9 175.1 336.7 177.9 341.9C191.3 365.7 198.9 386.3 201.7 406.1C202.5 412.1 203.1 418.1 203.1 424.1C203.1 431.5 202.5 438.9 201.1 446.1C200.1 451.7 198.5 457.5 196.9 463.1C194.1 472.9 191.3 483.1 191.3 492.9C191.3 498.3 192.1 503.3 193.9 507.9C197.3 517.3 204.5 525.7 212.3 534.7C216.1 539.3 220.3 543.9 224.1 549.1C224.9 550.3 225.9 551.7 227.1 553.3C229.7 556.9 232.9 561.5 236.1 565.3C242.3 572.5 247.9 574.5 255.7 572.1C261.7 570.5 268.3 567.1 275.3 563.5Z" stroke="black" stroke-width="0.7" stroke-miterlimit="10"/>
<path d="M304.3 525.5L307.5 524.7C339.9 515.9 359.1 503.1 378.3 476.9L378.7 476.3C388.9 462.3 397.9 450.1 402.3 436.5C404.5 429.7 405.7 421.5 405.7 412.7C405.7 400.9 403.7 389.1 400.3 380.7C391.3 358.9 372.1 350.9 349.9 341.7C320.9 329.7 283.3 308.5 269.3 276.3C266.7 270.5 266.3 264.9 265.7 258.9C265.5 256.7 265.3 254.3 264.9 251.9C263.7 242.7 261.7 232.7 259.1 220.7C258.7 219.1 258.3 217.3 258.1 215.7C256.1 207.1 250.7 195.5 241.7 191.7C235.1 188.9 228.9 189.3 223.7 192.9C207.9 203.3 202.5 239.5 202.5 254.3L202.5 254.5C202.5 261.1 203.1 267.7 203.9 274.3C204.3 277.9 204.7 281.7 204.9 285.5C205.3 291.7 207.1 296.9 211.1 303.1C215.1 309.5 217.1 316.5 217.1 324.9C217.1 331.1 216.1 337.5 215.1 344.3C214.7 346.3 214.5 348.5 214.1 350.5C212.9 359.3 212.3 368.7 212.3 380.3C212.3 387.5 212.5 394.7 212.7 401.5C212.9 408.5 213.1 415.5 213.1 422.5C213.1 435.3 212.3 445.5 210.7 455.1C210.1 457.9 209.5 460.9 208.7 464.1C207.1 470.9 205.1 478.7 205.1 486.3C205.1 490.5 205.7 494.5 206.7 498.1C212.1 516.1 233.9 530.9 251.1 533.7C257.5 534.7 264.1 534.5 271.7 533.3C283.3 531.1 293.5 528.3 304.3 525.5Z" stroke="black" stroke-width="0.7" stroke-miterlimit="10"/>
<path d="M286.7 0.5C286.3 3.7 285.9 6.70001 285.9 9.70001C285.9 21.1 289.5 31.3 296.5 39.9C298.3 40.9 299.9 41.9 301.1 42.7C305.9 45.7 308.9 47.5 316.9 48.5C323.3 49.3 329.7 48.9 336.1 48.7C343.5 48.5 351.3 48.1 358.9 49.3C385.9 53.7 413.7 75.1 423.5 99.3C424.5 101.7 425.7 104.7 426.1 106.9C426.3 108.7 426.5 110.3 426.5 111.9C426.5 126.1 412.7 129.3 399.3 132.3C396.3 133.1 393.3 133.7 390.3 134.5C379.3 137.7 371.9 142.1 366.7 148.5C361.3 155.1 357.9 163.9 355.5 176.9C354.5 182.3 354.1 187.1 354.1 191.9C354.1 201.1 355.9 209.7 359.7 221.1C359.9 221.7 360.1 222.1 360.3 222.5C362.5 228.9 364.3 234.1 370.3 237.9C381.7 245.1 400.1 251.1 413.1 248.3C425.9 245.5 428.5 236.3 431.1 226.5C431.7 224.7 432.1 222.7 432.7 220.7C433.7 217.7 434.7 215.3 435.9 213.3C444.1 198.5 451.7 182.3 459.5 161.9C466.1 144.7 480.9 136.3 494.9 128.3C508.5 120.5 522.7 112.3 529.5 96.1C530.5 93.7 531.1 90.9 531.1 87.9C531.1 84.3 530.3 80.3 528.9 76.1C524.9 64.5 512.5 54.3 502.1 46.5C485.9 34.5 465.7 19.3 452.7 1.7C452.3 1.3 452.1 0.699981 451.7 0.299981" stroke="black" stroke-width="0.7" stroke-miterlimit="10"/>
<path d="M313.9 0.500061C313.5 2.10006 313.3 3.70005 313.3 5.30005C313.3 13.9 319.1 21.3001 328.1 24.5001C334.5 26.7001 341.3 27.1001 348.9 27.7001C351.5 27.9001 354.3 28.1 357.3 28.3C369.1 29.3 381.1 31.5001 392.7 33.7001C404.3 35.9001 415.1 37.9 423.7 38.3C424.7 36.9 425.7 35.5001 425.7 33.7001C425.7 33.3001 425.7 33.1001 425.5 32.7001C423.1 28.3001 420.7 23.7 418.5 19.3C415.5 12.9 412.3 6.50006 408.3 0.500057" stroke="black" stroke-width="0.7" stroke-miterlimit="10"/>
<path d="M386.3 190.7C386.3 198.9 390.3 207.1 399.1 207.1C407.9 204.5 418.5 192.5 418.5 181.9C418.5 179.3 417.9 176.9 416.5 174.9C414.5 171.9 411.7 170.1 408.1 169.5C403.5 168.7 398.1 170.1 394.1 173.1C389.3 176.5 386.3 183.5 386.3 190.7Z" stroke="black" stroke-width="0.7" stroke-miterlimit="10"/>
<path d="M439.7 49.5001C439.3 50.3001 439.3 51.3 439.3 52.1C439.3 55.7 441.5 59.7001 443.7 63.5001C444.5 64.9001 445.3 66.3001 446.1 67.7001C446.5 68.5001 446.9 69.3 447.3 70.1C453.3 82.5 461.7 99.5 481.5 98.3C487.7 96.5 493.9 91.5001 493.9 83.7001C493.9 83.1001 493.9 82.3001 493.7 81.5001C487.9 67.7001 471.9 59.3001 458.3 53.5001L457.3 53.1C451.5 50.7 444.7 47.9001 439.7 49.5001Z" stroke="black" stroke-width="0.7" stroke-miterlimit="10"/>
<path d="M591.9 201.9C588.1 205.9 586.1 210.1 586.1 214.1C586.1 223.5 596.9 229.7 607.5 231.1C615.5 232.1 624.3 231.9 631.5 230.5C638.5 229.1 642.1 226.3 644.1 220.5C644.5 219.1 644.9 217.5 645.3 215.7C645.9 212.5 646.3 209.9 646.3 207.3C646.3 200.5 643.9 195.5 639.3 192.5C633.9 189.1 621.7 189.7 615.3 190.5C606.1 191.9 597.5 195.9 591.9 201.9Z" stroke="black" stroke-width="0.7" stroke-miterlimit="10"/>
<path d="M742.1 928.3C740.7 921.1 739.7 913.5 738.7 905.7C737.7 898.3 736.7 890.5 735.3 883.1C734.5 878.9 733.7 875.5 732.9 872.1C731.9 867.9 730.9 864.1 730.1 859.1C729.5 854.5 729.1 849.7 728.7 844.9C728.1 834.3 727.3 823.3 722.3 814.1C716.1 802.3 700.5 801.1 687.7 805.1C666.1 811.9 651.1 820.7 641.9 831.9C638.5 836.1 634.5 840.3 630.5 844.3C622.5 852.3 614.1 860.7 609.9 871.5C606.5 879.7 604.1 889.3 601.7 898.5C600.3 904.1 598.7 909.7 597.1 915.3C596.3 917.9 595.3 920.7 594.3 923.5C593.7 925.1 593.1 926.7 592.5 928.3" stroke="black" stroke-width="0.7" stroke-miterlimit="10"/>
<path d="M718.5 928.3C717.3 921.7 715.9 914.7 713.7 908.1C712.1 902.9 710.5 897.7 709.1 892.7C706.3 882.9 703.5 872.9 699.3 863.3C695.1 853.9 690.3 844.1 680.7 839.9C668.1 834.3 654.3 839.7 644.3 854.3C642.5 856.9 640.7 859.3 639.1 861.5C631.9 871.3 625.1 880.5 622.7 893.9C621.1 902.5 620.1 915.3 619.7 928.3" stroke="black" stroke-width="0.7" stroke-miterlimit="10"/>
<path d="M761.3 928.3C759.7 917.9 760.1 907.1 760.5 895.7C760.9 885.9 761.3 875.7 760.3 865.7C759.3 856.5 757.5 848.1 755.7 840.1C755.3 838.1 754.7 836.1 754.3 834.1C753.9 832.5 753.7 831.1 753.3 829.5C749.9 814.1 746.7 797.9 737.7 784.9C727.3 769.7 705.7 767.7 690.7 774.7C676.9 781.1 666.1 791.7 655.7 801.9C647.1 810.5 638.1 819.3 627.5 825.5C623.7 828.3 619.9 830.7 616.3 833.1C604.7 840.5 595.5 846.5 591.9 862.1C584.7 892.3 578.7 918.3 548.5 923.1C537.9 924.9 529.5 922.5 521.5 920.3C515.1 918.5 509.1 916.7 502.3 917.1C501.5 917.9 500.7 918.7 500.1 919.5C499.1 920.5 498.1 921.5 497.1 922.7C497.3 924.7 497.5 926.5 497.9 928.1" stroke="black" stroke-width="0.7" stroke-miterlimit="10"/>
<path d="M663.1 595.5C663.7 594.1 664.3 592.7 665.1 591.7C668.7 586.7 673.7 582.3 677.3 579.7C686.3 572.7 695.1 568.7 706.5 566.1C722.5 562.3 728.7 552.3 734.3 536.3C737.5 527.1 739.1 517.1 739.1 507.1C739.1 502.1 738.7 497.1 737.9 492.3C734.9 475.1 724.3 464.1 709.3 461.9C706.1 461.5 702.9 460.9 699.7 460.3C686.9 457.9 673.5 455.5 661.7 463.1C652.1 469.3 650.7 480.7 650.7 492.3C650.7 494.5 650.7 496.9 650.7 498.9C650.7 501.1 650.9 503.3 650.9 505.3C650.9 509.5 650.7 512.5 650.3 515.3C648.9 524.5 646.5 533.7 644.3 542.5C640.7 557.1 637.3 570.9 637.3 584.7C637.3 587.7 637.5 590.5 637.7 593.3C638.1 596.9 641.1 599.9 645.9 601.9C650.3 603.7 656.1 604.1 659.5 601.3C660.9 599.7 661.9 597.5 663.1 595.5Z" stroke="black" stroke-width="0.7" stroke-miterlimit="10"/>
<path d="M721.1 516.1C721.1 510.9 720.1 505.7 719.3 503.1C719.1 502.3 718.7 501.5 718.5 500.9C716.5 496.7 713.1 494.3 709.1 494.3C705.9 494.3 702.5 495.7 700.1 498.1C696.7 501.5 695.5 506.1 696.7 510.5C698.1 515.3 703.9 525.5 710.3 528.5C712.5 529.5 714.5 529.7 716.5 528.9C720.1 527.1 721.1 520.9 721.1 516.1Z" stroke="black" stroke-width="0.7" stroke-miterlimit="10"/>
<path d="M907.3 385.3C899.1 382.9 890.7 382.1 883.9 382.9C882.9 382.9 881.9 382.9 880.9 382.9C879.7 382.9 878.7 382.9 877.5 382.9C870.5 383.7 861.9 386.5 852.9 389.5C843.7 392.5 834.1 395.7 824.9 397.3C821.1 397.9 816.9 398.3 812.9 398.7C799.7 399.9 786.3 401.3 780.3 410.5C777.5 414.7 776.3 420.7 776.3 429.5C776.3 434.5 776.7 439.7 777.1 445.1C777.3 447.1 777.3 449.1 777.5 451.3C778.5 469.5 783.3 507.1 793.3 520.3C806.9 538.3 830.3 540.3 851.3 540.1C877.9 537.9 892.7 519.9 907.7 499.9" stroke="black" stroke-width="0.7" stroke-miterlimit="10"/>
<path d="M907.3 867.5C901.1 866.9 894.3 866.5 886.9 866.9C880.7 867.1 874.7 866.9 868.7 866.7C859.5 866.5 850.9 866.1 844.1 867.7C827.1 871.5 814.9 893.1 809.1 911.9C807.3 917.5 806.9 922.7 807.3 928.1" stroke="black" stroke-width="0.7" stroke-miterlimit="10"/>
<path d="M907.3 406.9C898.3 404.1 888.7 403.5 879.9 405.1C875.7 405.9 870.7 407.5 865.3 409.1C857.7 411.3 848.9 414.1 840.1 415.3C837.5 415.7 835.3 416.1 832.9 416.3C817.7 418.3 805.9 420.1 797.9 430.1C792.5 436.9 789.3 449.9 789.3 464.5C789.3 482.3 793.9 498.9 801.3 508.9C813.7 525.3 835.5 525.9 851.7 523.5C868.9 519.9 877.7 507.5 889.1 491.9C894.3 484.7 899.7 477.1 906.7 469.3C906.9 469.1 907.1 468.9 907.3 468.7" stroke="black" stroke-width="0.7" stroke-miterlimit="10"/>
<path d="M907.3 697.9C899.5 700.7 891.7 703.9 884.1 706.9C873.7 711.1 863.9 715.1 854.3 717.9C847.9 719.7 836.1 721.1 827.9 720.1C826.3 719.9 824.5 719.5 822.5 718.9C815.9 717.1 807.5 715.1 801.5 723.5C799.7 739.1 812.5 748.5 823.7 756.9C826.7 759.1 829.5 761.1 831.9 763.3C839.9 770.9 845.5 781.3 851.7 792.1C861.1 809.1 870.9 826.7 889.9 834.9C895.3 837.3 901.5 839.3 907.5 841.3" stroke="black" stroke-width="0.7" stroke-miterlimit="10"/>
<path d="M802.3 471.7C802.3 481.3 805.1 490.9 809.9 497.1C816.1 505.3 823.5 510.1 841.3 509.3C864.1 503.7 876.5 478.9 876.5 458.5C876.5 455.9 876.3 453.3 875.9 450.7C873.7 447.9 870.7 445.3 867.3 442.5C844.1 434.9 824.7 435.3 814.3 443.5C806.7 449.1 802.3 459.5 802.3 471.7Z" stroke="black" stroke-width="0.7" stroke-miterlimit="10"/>
<path d="M907.3 563.1C907.1 563.3 906.7 563.5 906.5 563.7C894.9 571.7 880.5 574.7 866.5 577.5C850.9 580.7 834.7 584.1 821.9 594.3C815.3 599.5 812.7 606.1 813.9 614.3C816.5 631.1 831.7 651.1 839.9 661.9C852.5 673.9 867.7 678.5 886.3 675.9C892.9 674.9 900.1 673.1 907.1 671.1" stroke="black" stroke-width="0.7" stroke-miterlimit="10"/>
<path d="M831.7 469.5C828.9 471.1 827.3 473.7 827.3 476.5C827.3 477.3 827.5 478.3 827.9 479.1C829.1 480.7 831.1 481.9 832.9 482.1C834.3 482.3 835.5 481.9 836.3 480.9C836.7 480.3 837.3 479.7 837.9 479.3C838.3 478.5 838.3 477.5 838.3 476.7C838.3 473.9 836.7 471.3 833.9 469.7C833.3 469.5 832.5 469.5 831.7 469.5Z" stroke="black" stroke-width="0.7" stroke-miterlimit="10"/>
<path d="M907.3 889.9C904.9 889.9 902.3 889.9 899.5 890.3C884.3 891.7 862.7 897.5 851.1 906.9C844.5 912.3 841.7 917.3 839.7 928.3" stroke="black" stroke-width="0.7" stroke-miterlimit="10"/>
<path d="M907.3 596.5C903.9 597.7 900.1 598.9 896.1 600.1C877.7 605.9 856.7 612.3 856.7 630.1C856.7 630.7 856.7 631.3 856.7 631.9C857.1 637.7 859.9 642.9 864.5 646.9C871.1 652.5 881.5 655.1 893.3 653.9C897.9 653.5 902.5 652.7 907.1 651.7" stroke="black" stroke-width="0.7" stroke-miterlimit="10"/>
<path d="M907.3 712.1C905.9 712.7 904.5 713.5 903.1 714.1C886.3 723.3 875.7 735.9 873.9 748.7C873.5 751.7 873.3 754.5 873.3 757.5C873.3 769.3 876.5 780.9 882.5 791.1C888.5 800.9 896.9 808.9 907.1 814.3" stroke="black" stroke-width="0.7" stroke-miterlimit="10"/>
<path d="M907.3 917.9C904.3 917.9 901.3 918.5 898.9 919.5C894.9 921.3 892.5 924.1 892.5 927.7C892.5 927.9 892.5 928.1 892.5 928.3" stroke="black" stroke-width="0.7" stroke-miterlimit="10"/>
<path d="M907.3 735.3C902.3 741.7 899.5 749.5 899.5 758.1C899.5 766.9 902.3 775.3 907.3 782.3" stroke="black" stroke-width="0.7" stroke-miterlimit="10"/>
<path d="M907.3 135.9C902.7 139.9 896.7 143.7 888.9 147.3C881.1 150.9 873.7 154.9 865.7 159.3C856.3 164.3 846.7 169.7 836.7 173.9C831.3 176.3 825.3 178.3 818.9 180.5C791.7 189.9 760.9 200.7 760.9 233.9C760.9 234.3 760.9 234.7 760.9 235.3C761.1 247.3 765.5 258.7 768.9 266.1C769.7 267.9 770.5 269.7 771.5 271.7C774.1 277.3 776.7 283.1 779.5 288.1C787.9 303.1 791.9 320.5 795.9 337.1L795.9 337.3C796.3 338.7 796.7 340.3 796.9 341.9C799.3 353.1 802.3 367.1 815.3 371.5C825.3 374.9 838.1 371.7 850.5 368.7C855.1 367.7 859.3 366.5 863.3 365.9C877.3 363.5 890.5 363.3 902.7 365.5C904.3 365.7 905.9 366.1 907.5 366.5" stroke="black" stroke-width="0.7" stroke-miterlimit="10"/>
<path d="M781.1 0.5C781.3 1.3 781.3 2.09996 781.5 2.89996C782.1 6.09996 783.3 10.1 784.1 12.3C794.5 39.7 813.9 57.9 840.5 65.1C847.9 67.1 857.3 68.5 866.5 69.9C877.9 71.7 889.7 73.3 897.9 76.3C901.5 77.5 904.5 79.3 907.3 81.5" stroke="black" stroke-width="0.7" stroke-miterlimit="10"/>
<path d="M592.3 0.500057C588.5 11.5001 584.7 24.7 587.9 38.9C589.9 47.7 594.1 56.1 598.3 64.3C602.5 72.5 606.7 80.9001 608.5 89.5001C613.3 111.9 593.7 120.3 576.3 127.7C573.9 128.7 571.5 129.7 569.1 130.7C559.9 134.9 551.7 139.7 544.3 144.9C529.5 155.5 517.7 167.5 509.3 180.9C501.5 193.3 497.3 203.7 495.9 213.7C493.7 229.9 498.7 241.3 504.5 254.7C505.7 257.5 507.1 260.5 508.3 263.7C511.9 272.5 515.9 282.3 524.7 289.1C531.3 294.1 539.3 298.1 546.9 301.7L548.7 302.5C562.9 309.3 576.9 314.3 591.7 319.7C595.1 320.9 598.5 322.1 601.7 323.3C610.9 326.5 620.3 329.7 629.3 333.7C636.1 336.7 642.1 341.3 647.9 345.7C651.1 348.1 654.5 350.7 657.9 352.9C666.5 358.5 674.1 367.5 681.5 376.1C684.1 379.3 686.7 382.1 689.3 384.9C690.9 386.7 692.5 388.5 694.1 390.5C701.9 399.5 710.5 409.5 721.7 412.3C723.1 412.7 724.7 412.9 726.1 413.3C738.5 416.1 749.3 418.7 757.1 431.1C764.5 442.9 766.9 457.1 768.9 469.7C769.9 475.7 770.7 481.7 771.5 487.5C772.9 498.3 774.3 508.5 776.7 517.7C782.3 538.7 796.9 551.7 820.3 555.9C843.1 560.1 870.7 555.9 882.1 551.1C892.3 546.9 900.3 539.7 907.5 531.3" stroke="black" stroke-width="0.7" stroke-miterlimit="10"/>
<path d="M717.7 0.500023C719.5 9.90002 721.7 19.3 725.5 28.1C731.1 41.7 741.1 51.9 750.5 61.7C760.5 71.9 769.7 81.5 773.5 94.1C778.7 111.7 765.7 124.9 753.3 137.7C752.5 138.5 751.7 139.3 750.9 140.1C744.5 146.7 739.9 154.5 735.3 161.9C731.9 167.3 728.5 172.9 724.5 177.9C721.5 181.7 718.7 185.7 716.1 189.7C714.3 192.3 712.3 195.1 710.5 197.7C707.3 202.1 702.3 204.9 697.5 207.9C694.9 209.5 692.3 211.1 689.9 212.9C683.5 217.9 678.7 224.9 674.1 231.7C665.5 244.1 657.5 255.9 640.7 256.7C630.7 257.1 618.3 254.9 606.7 250.5C595.7 246.3 583.7 238.3 573.9 228.7C567.3 222.1 564.1 215.5 564.7 208.9C565.7 197.1 578.1 187.1 588.7 179.7C595.1 175.3 601.1 173.5 607.5 171.7C611.3 170.7 615.1 169.5 619.1 167.9C623.1 166.3 627.1 164.3 630.9 162.3C636.9 159.3 643.3 156.1 649.9 154.1C661.1 150.9 677.3 150.1 686.7 155.3C695.7 160.3 711.1 157.9 719.3 152.7C726.7 147.9 731.3 136.1 735.1 126.7C735.9 124.5 736.7 122.5 737.5 120.7C737.9 119.9 738.3 118.9 738.7 118.1C740.1 115.1 741.3 112.5 741.9 109.5C744.9 94.7 737.9 84.5 720.3 78.5C701.9 72.1 685.1 76.5 673.1 91.1C669.5 95.5 666.7 100.7 663.9 105.5C662.7 107.7 661.3 110.1 660.1 112.3C659.7 112.9 659.5 113.5 659.1 114.1C655.3 120.5 650.5 128.5 644.9 132.9C636.7 139.5 627.7 144.9 618.1 148.9C613.3 150.9 608.3 152.5 603.1 154.3C599.3 155.5 595.5 156.9 591.5 158.3C582.5 161.7 574.7 166.9 569.5 170.5C560.1 177.5 547.3 189.9 542.7 202.3C535.5 221.9 554.9 248.5 569.7 261.5C577.9 268.7 588.3 273.5 597.3 277.3C599.7 278.3 602.3 279.3 604.7 280.3C618.3 285.7 630.9 290.7 642.7 299.3C646.5 302.1 650.5 304.3 654.5 306.5C657.3 308.1 660.3 309.7 663.1 311.5C670.3 316.1 674.5 323.1 678.1 329.9C679.7 333.1 681.3 336.3 682.7 339.5C686.9 348.7 691.3 358.1 698.7 365.7C703.3 370.5 708.3 372.5 713.3 371.5C721.7 369.7 727.9 360.5 730.9 352.3C737.3 335.5 734.9 315.9 732.9 298.7L732.7 296.5C732.5 295.1 732.5 293.7 732.3 292.5C731.5 284.9 730.7 277.7 726.7 270.5C726.1 269.3 725.5 268.3 724.7 267.1C718.5 256.3 713.1 246.7 710.3 234.3C708.5 226.5 708.7 214.7 713.1 207.7C715.3 204.1 718.7 202.7 722.1 201.1C724.3 200.1 726.5 199.1 728.5 197.7C736.3 191.7 742.5 183.7 748.5 175.9C754.3 168.3 760.3 160.3 767.9 154.3C772.5 150.7 778.1 147.7 783.5 144.9C788.9 142.1 794.5 138.9 798.9 135.5C807.7 128.3 810.7 118.7 807.5 108.3C804.7 99.1 796.9 89.1 789.3 79.3C788.1 77.7 787.1 76.3 785.9 74.9C782.1 69.7 777.9 64.9 774.1 59.9C763.3 46.7 753.1 34.1 747.5 19.9C745.3 14.3 743.7 7.9 742.3 1.1" stroke="black" stroke-width="0.7" stroke-miterlimit="10"/>
<path d="M619.7 0.500057C619.3 17.9001 620.1 36.1001 622.3 45.7001C623.7 52.7001 627.3 59.9 631.1 67.3C637.3 79.9 643.7 92.7001 639.9 104.7C633.3 126.1 610.5 134.3 590.3 141.7C586.1 143.3 582.3 144.5 578.5 146.1C570.3 149.5 562.5 153.5 555.7 158.5C545.1 166.1 538.5 175.5 531.7 185.3C530.7 186.9 529.7 188.3 528.5 189.9C522.3 198.7 516.1 209.3 517.9 221.5C518.5 225.3 520.5 229.3 522.5 233.3C523.7 235.7 524.9 238.1 525.7 240.3C526.3 241.9 526.9 243.7 527.5 245.5C532.3 258.7 537.1 272.3 547.9 281.7C550.9 284.3 554.9 286.7 558.7 288.9C560.7 290.1 562.5 291.1 564.3 292.3C571.5 296.9 579.3 300.9 587.7 304.3C596.7 307.9 606.5 309.9 615.9 311.9C626.1 314.1 636.7 316.3 646.3 320.5C656.1 324.7 663.3 335.9 669.5 345.7C671.3 348.3 672.9 350.9 674.5 353.1C679.1 359.7 684.7 365.7 690.3 371.1C693.9 374.7 697.5 378.5 700.9 382.5C708.7 391.7 722.1 395.9 735.9 393.5C759.9 388.9 763.9 379.7 767.3 359.3C769.9 343.9 769.3 325.9 765.5 304.5C763.3 292.1 755.3 280.3 747.7 268.9C744.9 264.7 742.3 260.9 739.9 257.1C730.3 241.1 732.3 222.3 745.3 206.5C746.9 204.5 748.5 202.5 750.1 200.5C759.7 188.5 768.7 177.3 783.1 171.3C789.3 168.7 796.1 166.9 802.5 165.1C808.9 163.5 815.3 161.7 821.5 159.1C830.9 155.3 841.1 147.7 848.5 139.3C854.9 132.1 861.7 121.3 858.5 110.3C855.5 100.1 843.9 94.1001 831.7 87.7001C823.9 83.7001 815.9 79.5 809.1 73.9C800.3 66.7 792.5 56.9 787.3 50.3L786.7 49.7001C775.7 35.5001 765.1 21.9 761.7 4.10003C761.5 2.90003 761.3 1.90006 761.1 0.700063" stroke="black" stroke-width="0.7" stroke-miterlimit="10"/>
<path d="M265.5 0.5C264.7 22.5 269.1 41.3 278.3 54.5C286.5 66.3 297.9 73.3 312.5 75.5C318.1 76.3 324.5 75.7 330.5 75.1C336.9 74.3 343.3 73.7 349.5 74.7C356.5 75.7 362.9 79.5 365.7 84.3C367.7 87.7 367.9 91.5 366.5 95.3C351.7 107.9 341.9 118.3 335.7 133.9C333.9 138.3 332.3 142.9 330.5 148.5C329.7 151.3 328.7 153.9 327.9 156.7C322.3 173.7 316.7 191.3 318.9 219.7C320.1 233.5 322.5 243.7 331.7 252.7C337.7 258.7 344.9 263.1 351.9 267.5C356.9 270.7 362.1 273.9 366.9 277.5C369.3 279.3 371.7 281.7 373.9 283.7C377.3 286.9 380.7 290.3 384.7 292.7C392.7 297.7 406.1 297.9 415.1 296.1C426.9 293.5 436.9 286.1 446.3 278.5C448.7 276.7 451.1 274.9 453.9 272.9C461.1 267.9 468.5 262.7 472.3 255.5C476.5 247.5 476.5 238.3 475.9 229.5C475.7 226.5 474.9 223.3 474.1 220.3C472.9 215.9 471.7 211.3 472.5 206.9C475.3 191.3 486.3 173.5 495.5 162.1C500.5 155.9 506.1 150.3 512.3 145.5C517.1 141.7 521.9 138.1 527.1 134.1C535.9 127.5 545.1 120.7 554.3 112.9C562.7 105.7 570.7 96.3 565.7 81.5C562.7 73.1 557.7 65.8999 552.9 59.0999C545.5 49.0999 535.3 40.1 525.3 31.5C516.1 23.5 507.5 16.1 502.3 8.49999C500.9 6.49999 499.5 4.09998 498.7 0.299978" stroke="black" stroke-width="0.7" stroke-miterlimit="10"/>
<path d="M0.499998 685.3C1.9 684.9 3.3 684.5 4.9 684.1C17.9 680.5 30.1 676.9 41.9 675.5C47.9 674.7 59.1 673.9 66.7 675.9C79.1 679.3 89.7 689.5 100.1 699.1C114.7 712.7 129.7 726.9 149.9 722.7C160.7 720.3 167.5 714.5 170.5 704.7C173.1 696.3 172.9 685.7 172.1 673.9C170.9 652.5 174.5 637.9 177.7 629.3C180.9 620.7 186.3 612.9 191.7 605.3C198.7 595.1 205.5 585.3 206.9 574.5C207.5 570.1 207.3 566.5 206.5 562.5C204.3 552.3 199.1 544.5 193.7 536.3C184.5 522.5 174.9 508.1 180.5 480.3C181.7 474.1 183.5 468.1 185.5 461.7C191.5 441.1 197.9 419.9 185.3 396.3C174.5 374.9 154.7 361.3 135.7 348.3C126.7 342.3 117.5 335.9 109.5 328.9C99.1 319.9 84.9 307.9 89.9 292.9C91.9 286.9 92.7 280.7 93.7 274.7C95.3 265.3 96.7 255.5 102.3 246.7C106.3 240.3 111.9 235.5 117.3 230.7C119.9 228.5 122.5 226.1 124.9 223.7C130.3 218.3 136.7 214.1 142.7 209.9C147.9 206.3 153.3 202.7 158.1 198.3C163.3 192.5 167.7 187.5 173.1 181.5C179.7 174.3 187.3 167.9 194.9 161.5C209.3 149.5 222.9 138.1 227.1 123.1C230.3 112.5 229.7 101.7 225.9 87.9001C223.7 80.5001 219.5 70.7001 216.5 63.9001C210.1 49.9001 201.5 34.3001 193.3 21.9001C186.9 12.3001 177.9 4.90011 167.3 0.500115" stroke="black" stroke-width="0.7" stroke-miterlimit="10"/>
<path d="M807.1 0.500061C807.1 1.90006 807.3 3.30002 807.7 4.90002C811.7 27.7 829.5 42.9001 859.7 48.5001C868.3 50.1001 877.1 50.9001 885.7 51.5001C893.1 52.1001 900.5 52.7 907.3 53.9" stroke="black" stroke-width="0.7" stroke-miterlimit="10"/>
<path d="M907.3 168.5C904.7 169.1 902.1 169.7 899.3 170.3C893.9 171.5 888.5 172.7 883.5 174.1C874.7 176.7 865.5 180.7 856.7 184.5L855.1 185.1C849.3 187.7 843.1 189.7 836.5 191.9C823.1 196.3 809.1 200.9 799.1 210.1C790.3 218.3 785.1 231.5 785.1 246.5C785.1 254.9 786.7 263.1 789.9 269.9C793.5 278.1 797.9 284.7 803.1 290.1C807.5 294.7 809.7 301.3 812.1 307.7C813.5 311.9 815.1 316.3 817.3 320.3C823.9 331.9 833.1 339.3 844.1 341.5C854.3 343.5 867.5 343.3 880.1 343.1C887.9 343.1 895.9 342.9 903.3 343.1C904.5 343.1 906.1 343.3 907.3 343.3" stroke="black" stroke-width="0.7" stroke-miterlimit="10"/>
<path d="M907.3 192.7C901.7 192.7 896.1 192.9 891.1 193.7C884.1 194.7 876.3 195.9 869.3 198.7C866.5 199.9 864.1 201.5 861.9 203.3C860.1 204.7 858.3 205.9 856.5 206.9C853.7 208.5 850.5 209.7 847.1 210.9C837.5 214.7 827.7 218.5 824.9 229.1C824.3 231.7 823.9 234.9 823.9 239.1C823.9 243.5 824.3 248.3 824.7 252.5C824.7 254.1 824.9 255.7 825.1 257.1C825.9 270.7 831.1 285.3 839.1 296.3C848.7 309.3 864.7 313.1 875.9 314.9C884.1 316.1 895.9 317.3 906.1 313.5C906.5 313.3 906.9 313.1 907.3 312.9" stroke="black" stroke-width="0.7" stroke-miterlimit="10"/>
<path d="M839.7 0.500061C839.7 0.500061 839.7 0.700024 839.7 0.900024C841.5 21.3 863.7 32.7001 907.3 35.7001" stroke="black" stroke-width="0.7" stroke-miterlimit="10"/>
<path d="M892.5 0.500061C892.7 2.30006 893.3 4.10002 894.3 5.90002C897.9 8.10002 902.3 10.3001 907.1 10.7001" stroke="black" stroke-width="0.7" stroke-miterlimit="10"/>
<path d="M907.3 684.9C899.3 687.1 891.1 689.5 882.7 691.3C872.1 693.5 857.5 693.3 849.3 690.9C838.5 687.5 831.9 681.9 821.9 672.9C820.3 671.5 818.7 669.9 817.1 668.3C810.5 661.9 803.1 654.7 795.3 653.1C779.7 649.9 770.7 659.5 763.7 669.3C760.3 674.1 757.7 679.7 755.1 684.9C751.7 691.7 748.3 698.9 743.3 704.7C737.9 710.9 730.3 716.3 720.5 720.7C716.1 722.7 711.5 723.5 706.9 724.5C702.5 725.3 697.9 726.3 693.7 728.1C674.5 736.7 652.7 747.9 637.3 766.3C630.7 774.3 620.1 784.5 607.7 787.1C599.5 788.9 592.3 786.5 586.5 784.5L585.5 784.1C572.5 779.7 541.5 766.7 533.7 739.3C532.3 734.5 531.3 728.3 530.1 722.1C528.7 714.1 527.3 705.9 525.1 699.9C521.7 690.5 516.9 683.9 511.5 676.7L510.7 675.7C505.5 668.9 499.1 660.5 499.9 649.5C500.7 639.9 505.7 629.1 513.7 619.5C521.7 609.9 531.5 603.5 540.5 601.9C546.3 600.9 550.9 600.3 555.5 599.9C559.3 599.5 563.1 599.1 567.1 598.5C587.3 594.9 603.5 585.3 615.1 569.5C624.5 556.7 631.1 539.9 634.7 519.1C639.3 492.1 630.5 469.3 626.5 460.7C620.1 447.1 604.9 432.5 590.9 419.9C577.1 407.3 568.9 400.7 547.1 399.3C540.1 398.9 533.3 399.3 526.7 399.9C524.1 400.1 521.5 400.3 518.9 400.5C516.9 400.5 515.1 400.7 512.9 400.9C506.3 401.5 499.3 402.1 492.3 400.9C477.7 398.3 471.3 389.9 472.7 375.1C474.5 355.7 487.3 338.7 505.5 331.9C519.9 326.5 534.9 330.9 547.1 334.3L549.1 334.9C569.1 340.7 584.9 348.5 597.1 358.9C603.9 364.7 610.3 371.3 616.7 377.5C618.9 379.9 621.3 382.3 623.7 384.5C627.1 387.7 630.1 391.5 632.9 394.9C636.5 399.3 640.5 403.9 644.9 407.7C651.1 413.1 658.1 417.3 664.1 420.5C683.9 431.3 701.3 438.7 717.5 443.5C731.9 447.7 743.5 459.3 748.3 474.7C754.5 494.5 753.7 522.7 746.1 558.5C742.3 576.1 732.3 586.7 716.1 589.7C697.5 593.1 688.3 605.7 678.7 618.9C676.1 622.3 673.5 625.9 670.9 629.3C659.3 643.3 648.5 636.3 636.9 628.9C631.7 625.5 626.5 622.1 620.9 620.7C612.5 618.3 603.5 621.3 594.7 624.3C590.1 625.9 585.9 627.3 581.7 627.9C561.7 631.3 545.9 634.7 539.3 644.9C535.9 650.3 535.3 657.3 537.9 666.3C538.3 667.7 538.7 669.3 539.3 671.1C540.3 674.5 541.5 678.5 542.1 681.7C543.3 687.3 544.1 693.1 544.9 699.3C545.7 705.9 546.5 712.7 548.1 720.1C550.5 731.5 555.9 741.5 563.9 748.9C571.7 756.3 581.7 760.9 592.5 762.5C597.1 763.1 601.1 763.3 605.5 762.1C618.1 758.3 627.1 746.9 634.9 736.7C636.7 734.3 638.5 732.1 640.1 730.1L640.3 729.7C648.5 719.9 658.5 707.7 672.3 708.1C686.5 708.5 696.9 706.7 706.9 702.1C722.7 694.7 732.3 684.1 739.9 665.7C740.5 664.3 741.1 662.9 741.5 661.5C744.1 655.1 746.7 648.7 750.1 642.7C752.9 637.7 756.3 634.5 760.1 630.9C762.1 628.9 764.3 626.9 766.3 624.7C768.7 621.9 771.9 619.3 775.3 616.7C783.9 609.7 793.5 601.9 791.3 589.9C790.1 583.7 785.9 577.5 781.3 571.1C777.3 565.5 773.3 559.5 770.7 552.9C766.3 541.7 765.3 526.1 764.1 509.3C763.5 499.3 762.7 488.7 761.3 479.1C757.9 457.3 750.3 442.7 737.9 434.1C734.3 431.5 730.3 429.9 726.3 428.3C723.3 427.1 720.1 425.9 717.1 424.1C714.9 422.9 713.1 420.9 711.5 419.1C710.5 418.1 709.7 416.9 708.5 416.1C706.5 414.3 704.5 412.7 702.5 411.1C700.3 409.3 698.1 407.5 695.9 405.5C692.5 402.5 689.5 398.9 686.3 395.5C683.5 392.3 680.5 389.1 677.3 386.1C674.7 383.7 671.9 381.7 669.3 379.7C666.3 377.5 663.1 375.3 660.3 372.5C655.3 367.5 650.1 362.3 644.1 358.3C638.9 354.7 633.9 353.1 628.7 351.5C627.1 351.1 625.3 350.5 623.7 349.9C619.9 348.5 616.3 346.1 612.7 343.9C610.7 342.5 608.5 341.1 606.3 339.9C598.3 335.5 590.1 331.7 582.3 328.7C580.1 327.9 577.9 327.1 575.7 326.3C574.7 325.9 573.9 325.7 572.9 325.3C568.7 323.7 564.5 322.1 560.3 320.7C548.3 316.1 536.1 311.5 524.9 309.1C517.7 307.5 510.1 306.3 502.5 307.9C476.5 313.5 449.5 338.7 444.5 361.7C442.3 372.3 442.3 385.7 444.9 399.5C449.1 422.3 460.1 430.7 484.1 429.5C489.7 429.3 495.3 428.7 500.9 428.3C512.7 427.3 523.9 426.1 534.7 427.5C540.9 428.3 546.5 430.3 550.1 431.7C558.1 435.1 571.9 442.7 586.9 452.3C601.5 461.7 612.3 474.3 616.3 486.9C623.9 510.9 616.3 543.1 598.7 561.9C589.9 571.3 574.7 581.3 553.1 575.7C551.7 575.3 550.5 574.9 549.1 574.1C547.5 573.3 545.7 572.5 543.7 572.1C538.7 569.3 534.1 565.5 529.9 562.1C520.1 554.1 510.7 546.7 497.5 549.5C495.1 550.1 492.5 551.1 489.7 552.3C483.9 554.7 478.1 557.1 474.5 554.3C468.3 549.3 461.9 542.5 455.1 535.5C443.3 523.1 431.1 510.3 419.7 506.7C408.3 503.1 396.9 510.5 391.9 513.7C386.7 517.1 381.3 521.1 375.5 525.3C371.1 528.5 366.5 531.9 361.9 535.1C358.1 537.7 354.5 540.3 350.7 542.9C342.3 548.7 334.3 554.3 325.9 559.9C322.5 562.1 318.9 564.5 315.5 566.7C309.7 570.3 303.7 574.1 298.5 578.1C287.3 586.5 282.7 595.9 284.9 606.3C286.9 616.5 294.9 627.7 302.1 637.3C303.1 638.7 304.1 639.9 305.1 641.1C318.5 659.1 333.9 679.5 350.7 684.7C365.1 689.3 371.9 680.9 378.9 671.9C379.7 670.9 380.5 669.9 381.3 669.1C386.1 663.1 391.3 658.7 395.5 655.1C401.3 650.1 408.3 645.7 415.1 641.5C419.9 638.5 424.5 635.7 428.1 632.9C440.9 623.1 446.5 610.5 451.9 598.3C457.3 586.3 462.7 573.9 474.9 564.5C475.3 564.5 475.7 564.5 476.3 564.5C477.5 564.5 478.9 564.5 480.1 564.7C492.1 575.9 495.1 589.7 489.3 606.9C487.5 612.1 484.7 617.3 481.7 622.9C475.1 635.3 468.1 648.1 472.5 662.7C475.7 673.3 483.1 680.7 490.3 687.7C497.5 694.7 504.9 701.9 508.5 712.5C510.5 718.7 511.3 724.9 511.9 733.9C513.7 756.3 516.1 767.1 527.9 776.5C543.3 788.7 570.7 803.7 581.9 808.3C586.5 810.1 589.7 811.3 592.3 811.7C611.9 815.7 627.3 803.5 638.7 792.5C641.3 789.9 643.9 786.9 646.3 784.1C648.5 781.5 650.7 778.9 653.1 776.5C657.9 771.7 663.9 767.7 669.5 763.9C672.3 761.9 675.3 760.1 678.1 757.9C698.1 742.9 715.7 738.3 734.9 743.1C748.7 746.7 766.1 754.7 770.9 773.1C772.7 779.9 773.5 787.3 774.3 794.9C775.1 802.1 776.1 809.5 777.7 816.7C779.1 823.1 781.1 829.1 782.9 834.9C785.5 843.1 787.9 850.7 788.9 858.7C790.7 872.7 787.9 884.9 785.1 896.9C782.7 907.5 780.3 917.5 781.7 927.3" stroke="black" stroke-width="0.7" stroke-miterlimit="10"/>
</g>
<defs>
<clipPath id="clip0">
<rect width="927.8" height="906.8" fill="white" transform="translate(0.5 928.3) rotate(-90)"/>
</clipPath>
</defs>
</svg>
